<svg width="20" height="20" viewBox="0 0 20 20" fill="none" xmlns="http://www.w3.org/2000/svg">
<path d="M17.9942 6.00247C17.8993 5.6503 17.7138 5.32914 17.4562 5.07094C17.1986 4.81274 16.8778 4.62652 16.5259 4.5308C15.2209 4.17247 10 4.16663 10 4.16663C10 4.16663 4.78003 4.1608 3.4742 4.5033C3.12247 4.60342 2.80238 4.79228 2.54467 5.05174C2.28696 5.31121 2.10027 5.63257 2.00253 5.98497C1.65836 7.28997 1.65503 9.99663 1.65503 9.99663C1.65503 9.99663 1.6517 12.7166 1.99336 14.0083C2.18503 14.7225 2.74753 15.2866 3.46253 15.4791C4.78086 15.8375 9.98753 15.8433 9.98753 15.8433C9.98753 15.8433 15.2084 15.8491 16.5134 15.5075C16.8654 15.4119 17.1865 15.2261 17.4447 14.9684C17.703 14.7108 17.8895 14.3902 17.9859 14.0383C18.3309 12.7341 18.3334 10.0283 18.3334 10.0283C18.3334 10.0283 18.35 7.30747 17.9942 6.00247V6.00247ZM8.33003 12.5041L8.3342 7.50413L12.6734 10.0083L8.33003 12.5041V12.5041Z" fill="white"/>
</svg>
